<?xml version="1.0" encoding="utf-8"?>
<!-- Generator: Adobe Illustrator 18.1.0, SVG Export Plug-In . SVG Version: 6.00 Build 0)  -->
<svg version="1.1" id="Ebene_1" xmlns="http://www.w3.org/2000/svg" xmlns:xlink="http://www.w3.org/1999/xlink" x="0px" y="0px"
	 viewBox="0 0 124.4 124.4" enable-background="new 0 0 124.4 124.4" xml:space="preserve">
<g>
	<path fill="#2D2E83" d="M67.9,52.8v-0.1C67.9,52.7,67.9,52.8,67.9,52.8L67.9,52.8z"/>
	<path fill="#435159" d="M62.2,0C27.8,0,0,27.8,0,62.2c0,34.3,27.8,62.2,62.2,62.2s62.2-27.8,62.2-62.2C124.4,27.8,96.5,0,62.2,0z
		 M46.4,84.9H33.9V47.3h12.5V84.9z M40.1,42.2L40.1,42.2c-4.3,0-7-2.9-7-6.5c0-3.7,2.8-6.5,7.1-6.5c4.3,0,6.9,2.8,7,6.5
		C47.2,39.3,44.5,42.2,40.1,42.2z M93.6,84.9H81.1V64.8c0-5.1-1.8-8.5-6.3-8.5c-3.5,0-5.5,2.3-6.4,4.6c-0.3,0.8-0.4,1.9-0.4,3v21
		H55.4c0,0,0.2-34.1,0-37.6h12.5v5.3c1.7-2.6,4.6-6.2,11.3-6.2c8.2,0,14.4,5.4,14.4,16.9V84.9z"/>
</g>
</svg>
