<?xml version="1.0" encoding="utf-8"?>
<!-- Generator: Adobe Illustrator 18.1.0, SVG Export Plug-In . SVG Version: 6.00 Build 0)  -->
<svg version="1.1" id="Ebene_1" xmlns="http://www.w3.org/2000/svg" xmlns:xlink="http://www.w3.org/1999/xlink" x="0px" y="0px"
	 viewBox="0 0 40 40" enable-background="new 0 0 40 40" xml:space="preserve">
<circle fill="#469AB7" cx="20" cy="20" r="20"/>
<g>
	<path fill="#FFFFFF" d="M17.2,8.6C17.2,8.5,17.3,8.5,17.2,8.6C17.3,8.5,17.3,8.5,17.2,8.6C17.2,8.5,17.2,8.5,17.2,8.6z"/>
	<path fill="#FFFFFF" d="M27.6,11.1c-2-1.8-4.7-2.9-7.6-2.9c-0.9,0-1.8,0.1-2.7,0.3c0.2,0.2,2.3,3.1,4.3,6.7
		C25.9,13.6,27.5,11.1,27.6,11.1z"/>
	<path fill="#FFFFFF" d="M8.8,17.3c0.3,0,5.1,0.1,10.6-1.4c-2-3.5-4.1-6.4-4.3-6.6C11.9,10.8,9.5,13.8,8.8,17.3z"/>
	<path fill="#FFFFFF" d="M20.8,19.8c0.2,0,0.3-0.1,0.5-0.1c-0.3-0.7-0.6-1.3-0.9-1.9c-5.9,1.8-11.6,1.6-11.8,1.6c0,0.1,0,0.2,0,0.4
		c0,2.9,1.1,5.6,2.9,7.7l0,0C11.5,27.5,14.6,21.8,20.8,19.8z"/>
	<path fill="#FFFFFF" d="M31.3,21.5c-0.2-0.1-3.4-1.1-7.1-0.5c1.5,4.1,2.1,7.5,2.2,8.2C29,27.4,30.8,24.7,31.3,21.5z"/>
	<path fill="#FFFFFF" d="M24.5,30.2c-0.2-1-0.8-4.5-2.4-8.7H22c-6.8,2.4-9,7.1-9,7.2c1.9,1.5,4.4,2.4,7,2.4
		C21.6,31.1,23.1,30.8,24.5,30.2z"/>
	<path fill="#FFFFFF" d="M28.9,12.4c0,0-1.9,2.7-6.4,4.5c0.3,0.5,0.5,1.1,0.8,1.7c0.1,0.2,0.2,0.4,0.2,0.6c3.9-0.5,7.8,0.3,8,0.4
		C31.4,16.8,30.5,14.3,28.9,12.4z"/>
	<path fill="#FFFFFF" d="M13,28.7c-0.1-0.1-0.2-0.1-0.3-0.2C12.9,28.6,13,28.7,13,28.7L13,28.7z"/>
</g>
</svg>
