<?xml version="1.0" encoding="utf-8"?>
<!-- Generator: Adobe Illustrator 18.1.0, SVG Export Plug-In . SVG Version: 6.00 Build 0)  -->
<svg version="1.1" id="Ebene_1" xmlns="http://www.w3.org/2000/svg" xmlns:xlink="http://www.w3.org/1999/xlink" x="0px" y="0px"
	 viewBox="0 0 40 40" enable-background="new 0 0 40 40" xml:space="preserve">
<circle fill="#445055" cx="20" cy="20" r="20"/>
<g>
	<path fill="#FFFFFF" d="M30,12.1H10c-0.4,0-0.8,0.1-1.1,0.4c3.1,3.2,6.3,6.4,9.4,9.5c1.1,1.1,2.7,1.1,3.8,0
		c3.1-3.1,6.2-6.2,9.3-9.3C31,12.3,30.5,12.1,30,12.1z"/>
	<path fill="#FFFFFF" d="M16.9,23.3c-0.7-0.7-1.4-1.4-2-2.1c-0.1-0.1-0.2-0.2-0.3-0.3c-1.9,2-3.9,3.9-5.8,5.9
		c0.3,0.3,0.8,0.5,1.3,0.5h20c0.5,0,0.9-0.2,1.3-0.5c-1.9-1.9-3.7-3.8-5.6-5.7c-0.8,0.8-1.5,1.5-2.2,2.2
		C21.6,25.2,18.8,25.2,16.9,23.3z"/>
	<path fill="#FFFFFF" d="M8,14.4v10.5c1.7-1.7,3.4-3.5,5.2-5.2C11.4,17.8,9.7,16.1,8,14.4z"/>
	<path fill="#FFFFFF" d="M27,19.7c1.7,1.7,3.3,3.4,5,5.1v-10C30.3,16.5,28.7,18.1,27,19.7z"/>
</g>
</svg>
