<?xml version="1.0" encoding="utf-8"?>
<!-- Generator: Adobe Illustrator 18.1.0, SVG Export Plug-In . SVG Version: 6.00 Build 0)  -->
<svg version="1.1" id="Ebene_1" xmlns="http://www.w3.org/2000/svg" xmlns:xlink="http://www.w3.org/1999/xlink" x="0px" y="0px"
	 viewBox="0 0 40 40" enable-background="new 0 0 40 40" xml:space="preserve">
<g>
	<path fill="#2D2E83" d="M21.8,17L21.8,17L21.8,17L21.8,17z"/>
	<path fill="#469AB7" d="M20,0C8.9,0,0,8.9,0,20c0,11,8.9,20,20,20s20-8.9,20-20S31,0,20,0z M14.9,27.3h-4V15.2h4V27.3z M12.9,13.6
		L12.9,13.6c-1.4,0-2.3-0.9-2.3-2.1s0.9-2.1,2.3-2.1s2.2,0.9,2.3,2.1C15.2,12.6,14.3,13.6,12.9,13.6z M30.1,27.3h-4v-6.5
		c0-1.6-0.6-2.7-2-2.7c-1.1,0-1.8,0.7-2.1,1.5c-0.1,0.3-0.1,0.6-0.1,1v6.8h-4.1c0,0,0.1-11,0-12.1h4V17c0.5-0.8,1.5-2,3.6-2
		c2.6,0,4.6,1.7,4.6,5.4C30.1,20.4,30.1,27.3,30.1,27.3z"/>
</g>
</svg>
