<?xml version="1.0" encoding="utf-8"?>
<!-- Generator: Adobe Illustrator 18.1.0, SVG Export Plug-In . SVG Version: 6.00 Build 0)  -->
<svg version="1.1" id="Ebene_1" xmlns="http://www.w3.org/2000/svg" xmlns:xlink="http://www.w3.org/1999/xlink" x="0px" y="0px"
	 viewBox="0 0 40 40" enable-background="new 0 0 40 40" xml:space="preserve">
<circle fill="#469AB7" cx="20" cy="20" r="20"/>
<path fill="#FFFFFF" d="M33.1,13.2c-0.9,0.4-1.8,0.7-2.8,0.8c1-0.6,1.8-1.6,2.2-2.7c-0.9,0.6-2,1-3.1,1.2c-0.9-1-2.2-1.5-3.6-1.5
	c-2.7,0-4.9,2.2-4.9,4.9c0,0.4,0,0.8,0.1,1.1c-4.1-0.2-7.7-2.2-10.1-5.1c-0.4,0.7-0.7,1.6-0.7,2.5c0,1.7,0.9,3.2,2.2,4.1
	c-0.8,0-1.6-0.2-2.2-0.6c0,0,0,0,0,0.1c0,2.4,1.7,4.3,3.9,4.8c-0.4,0.1-0.8,0.2-1.3,0.2c-0.3,0-0.6,0-0.9-0.1
	c0.6,1.9,2.4,3.4,4.6,3.4c-1.7,1.3-3.8,2.1-6.1,2.1c-0.4,0-0.8,0-1.2-0.1c2.2,1.4,4.7,2.2,7.5,2.2c9,0,13.9-7.5,13.9-13.9
	c0-0.2,0-0.4,0-0.6C31.6,15,32.4,14.2,33.1,13.2z"/>
</svg>
