<?xml version="1.0" encoding="utf-8"?>
<!-- Generator: Adobe Illustrator 18.1.0, SVG Export Plug-In . SVG Version: 6.00 Build 0)  -->
<svg version="1.1" id="Ebene_1" xmlns="http://www.w3.org/2000/svg" xmlns:xlink="http://www.w3.org/1999/xlink" x="0px" y="0px"
	 viewBox="0.2 707.6 595.3 134.6" enable-background="new 0.2 707.6 595.3 134.6" xml:space="preserve">
<g>
	<path fill="#4999BA" d="M11.4,746.6c0,0,2.8-9.2,7-15.9c2.2-3.6,4.2-4.2,5.6-4.5c1.4-0.3,5,0.8,6.7,3.3c2.2,3.3,2.8,5.8,2.2,7
		c-1.1,2.5-4.5,9.7-4.5,9.7h10.8c0,0,1.9-0.3,2.5,1.1c0.8,2.5-0.6,6.4-1.7,8.9c-0.6,1.1-2.2,1.1-4.7,1.4c-1.1,0-10.6,0-10.6,0
		s-2.8,12.5-3.3,24.8c-0.3,5.3,0.3,11.4,2.5,12.2c2.2,0.8,9.5-3.3,12.2-5.6c3.3-2.5,6.7-6.4,10-9.5c1.9-1.9,2.8-1.4,3.6-1.1
		c0.3,0,1.1,3.1-0.3,7.2c-1.1,3.9-3.3,7.8-3.3,7.8s-7.5,8.3-14.2,12.2c-8.6,5-15.9,5-19.7,2.5c-5-3.1-6.7-9.7-7.2-15.3
		c-0.6-6.4-0.3-13.1,0.6-20.9c0.8-6.4,2.8-14.2,2.8-14.2H3.9c0,0-2.8,0.3-3.1-0.6c-0.8-1.7-0.8-3.9,0-6.1s1.7-3.9,3.1-4.2
		C5.3,746.6,11.4,746.6,11.4,746.6"/>
	<path fill="#445055" d="M551.3,746.6c0,0,2.8-9.2,7-15.9c2.2-3.6,4.2-4.2,5.6-4.5c1.4-0.3,5,0.8,6.7,3.3c2.2,3.3,2.8,5.8,2.2,7
		c-1.1,2.5-4.5,9.7-4.5,9.7h24.5c0,0,1.9-0.3,2.5,1.1c0.8,2.5-0.6,6.4-1.7,8.9c-0.6,1.1-15.9,1.1-18.1,1.4c-1.1,0-10.6,0-10.6,0
		s-2.8,12.5-3.3,24.8c-0.3,5.3,0.3,11.4,2.5,12.2c2.2,0.8,9.5-3.3,12.2-5.6c3.3-2.5,6.7-6.4,10-9.5c1.9-1.9,2.8-1.4,3.6-1.1
		c0.3,0,1.1,3.1-0.3,7.2c-1.1,3.9-3.3,7.8-3.3,7.8s-7.5,8.3-14.2,12.2c-8.6,5-15.9,5-19.7,2.5c-5-3.1-6.7-9.7-7.2-15.3
		c-0.6-6.4-0.3-13.1,0.6-20.9c0.8-6.4,2.8-14.2,2.8-14.2h-4.5c0,0-2.8,0.3-3.1-0.6c-0.8-1.7-0.8-3.9,0-6.1s1.7-3.9,3.1-4.2
		C544.9,746.6,551.3,746.6,551.3,746.6"/>
	<path fill="#4999BA" d="M83.5,758c0,0-2.8,13.4-5.6,24.8c-2.8,10.8-8.6,12.8-9.7,12.8c-1.1,0-7.5,0.6-4.7-13.9
		c2.2-12.5,10.3-18.9,13.4-21.1C78.7,758.8,83.5,758,83.5,758 M118.1,782.9c0-5-2.8-5-2.8-5s-7.8,8.9-10.6,11.7
		c-1.9,1.9-7,4.5-9.2,3.3c-2.2-1.2-1.7-8.1-1.1-11.4c0.6-3.3,3.6-19.2,4.2-22c0.8-4.2,0.3-7.2-1.9-8.3c-1.9-1.1-5.8,0-8.6-1.4
		c-2.8-1.1-2.2-3.6-5.6-4.2c-3.4-0.6-9.5,1.4-13.1,3.6c-5.3,3.3-17.8,13.4-21.7,30c-2.2,8.9-1.7,16.4,1.7,21.4
		c1.9,2.8,6.4,7.2,13.1,7.2c10,0,20.3-10.8,20.3-10.8s2.5,7.2,6.1,9.2c4.7,2.5,9.5,1.4,12.2,0.3c2.8-1.1,15.3-10.8,16.7-15
		C119,787.6,118.1,787.9,118.1,782.9"/>
	<path fill="#4999BA" d="M248.9,758c0,0-2.8,13.4-5.6,24.8c-2.8,10.8-8.6,12.8-9.7,12.8c-1.1,0-7.5,0.6-4.7-13.9
		c2.2-12.5,10.3-18.9,13.4-21.1C244.1,758.8,248.9,758,248.9,758 M283.5,782.9c0-5-2.8-5-2.8-5s-7.8,8.9-10.6,11.7
		c-1.9,1.9-7,4.5-9.2,3.3c-2.2-1.1-1.7-8.1-1.1-11.4c0.6-3.3,3.6-19.2,4.2-22c0.8-4.2,0.3-7.2-1.9-8.3c-1.9-1.1-5.8,0-8.6-1.4
		c-2.8-1.1-2.2-3.6-5.6-4.2c-3.4-0.6-9.5,1.4-13.1,3.6c-5.3,3.3-17.8,13.4-21.7,30c-2.2,8.9-1.7,16.4,1.7,21.4
		c1.9,2.8,6.4,7.2,13.1,7.2c10,0,20.3-10.8,20.3-10.8s2.5,7.2,6.1,9.2c4.7,2.5,11.1,0.3,13.6-0.8c2.8-1.1,13.9-9.7,15.3-13.9
		C284.6,787.6,283.5,787.9,283.5,782.9"/>
	<path fill="#445055" d="M358.4,748.5c0,0,9.5-19.2,15-24.2c4.2-3.9,7.2-4.2,9.5-3.6c2.8,0.6,4.5,3.9,4.2,6.4
		c-0.3,4.2-6.1,12.5-15.6,17C363.1,748,358.4,748.5,358.4,748.5 M410.4,778.7c-0.8-2.8-2.2-2.2-3.3-2.2c-1.4,0-8.9,5.3-12.5,5.8
		c-2.8,0.3-5.3-0.3-7.2-3.6c-2.2-3.3-4.5-12.8-6.1-14.7c-1.7-2.2-3.9-5.6-7-5.3c-3.1,0.3-8.3,5.3-9.5,8.3c-1.1,3.1-0.6,4.5,0.8,7.2
		c1.4,2.8,5.6,5.8,5.6,9.7c0,4.2-1.7,9.2-5.6,10.8c-3.9,1.4-9.2,0.3-12.8-5.6c-3.3-5.8-1.7-15.3-0.8-21.4c0.8-6.1,3.3-9.7,3.3-9.7
		s6.7-1.1,15-4.5c4.7-1.9,14.7-7.2,21.1-12.8c8.9-8.3,10-20.3,4.5-27.3c-5.3-6.4-13.6-6.7-18.9-5c-5.3,1.7-8.9,3.6-13.4,7.8
		c-5.6,5.3-13.9,16.4-18.9,27.3c-8.9,19.5-12.2,36.7-8.9,48.1c3.9,10.3,11.1,14.5,17.8,15.6c8.9,1.9,20.3-1.7,24.8-6.4
		c4.2-4.7,4.5-11.1,4.5-11.1s9.5,4.5,16.7,0.3C407,786.5,411.2,781.5,410.4,778.7"/>
	<path fill="#445055" d="M411.5,777.1c0,0,0.6-10.6,4.2-14.7c3.3-3.6,7-4.5,9.7-2.8c3.3,1.9,2.5,7.5,0.8,9.7
		C420.9,777.1,411.5,777.1,411.5,777.1 M460.2,779.6c-2.8-3.1-8.1,0.8-8.1,0.8s-9.2,6.4-14.2,9.5s-13.1,5.8-18.6,4.5
		c-6.7-0.6-5.3-7-5.3-7s10-2.5,12.5-4.5c4.5-3.9,6.7-5.8,10.3-10.8c3.3-5,4.7-14.7-1.7-21.1c-6.4-6.4-14.7-4.7-17.8-4.2
		c-2.8,0.8-10.6,4.2-15.9,13.9c-5,10-7,23.6-3.9,31.4c3.1,8.1,8.6,14.2,18.4,15.9c9.7,1.7,22.8-3.9,27.5-6.7
		c4.5-2.8,15.3-11.7,16.4-13.1C460.7,786.5,462.7,782.6,460.2,779.6"/>
	<path fill="#445055" d="M454,809.9c-2.8-0.6-5-3.1-5.8-5.6c-0.8-2.8-0.8-14.2,0.3-22c1.1-7.8,4.7-24.8,5.3-27
		c0.8-2.2,1.7-6.1,3.6-6.7c1.9-0.6,5.3-0.8,6.4-0.6c1.1,0.3,1.9,1.1,2.2,3.1c0.3,1.9,0,15,0,15h1.1c0,0,5.6-12,9.5-15
		c4.2-3.3,8.9-3.9,11.7-2.5c3.3,1.7,3.1,6.4,2.2,10.3c-0.8,3.9-2.8,13.6,0.6,16.4c3.3,2.8,6.4,1.1,8.3,0.6
		c1.7-0.6,11.4-6.7,11.4-6.7s2.8-1.1,2.8,2.8s-1.1,3.3-3.1,5c-2,1.7-12.5,10.6-18.6,11.7c-4.5,0.8-8.6,0.6-11.1-3.3S476,769,476,769
		h-1.1c0,0-12,33.9-13.1,36.2C459.9,807.9,458.5,810.7,454,809.9"/>
	<path fill="#445055" d="M520.2,762.1c-0.3-2.2,1.7-4.5,3.3-4.7c2.8-0.6,24.8-0.3,24.8-0.3l2.5-10.6c0,0-20.6,0-23.9,0
		c-6.1,0-15,1.1-20,7.5c-5.3,6.4-5.3,13.6-1.9,18.9c3.3,5.6,13.4,15.6,15,17.2c1.7,1.7,3.9,3.3,3.3,5.6c-0.8,1.9-2.8,1.9-4.2,1.9
		c-1.4,0-8.3-4.2-10.8-5.3c-2.2-0.8-6.7-3.9-11.7-1.9c-5,1.7-5.3,4.5-5.3,8.3c0,2.5,5.6,7,10,8.6c4.2,1.7,21.7,4.5,31.4-1.7
		c8.3-5.3,8.9-10.8,8.1-15.9c-0.8-5-7.2-10.8-9.7-13.6C528.2,773.5,520.7,765.5,520.2,762.1"/>
	<path fill="#445055" d="M317.2,778.7c-1.4,9.7-5.8,15-10.8,16.1c-4.5,0.8-8.1,0.6-10.8-4.2c-2.8-4.7-3.3-13.4-0.3-22.8
		c3.3-9.7,8.9-13.1,14.7-12.2C315.8,756.9,319.1,766.2,317.2,778.7 M342.2,750.7c-4.2,0.8-4.5-0.3-9.5-2.2
		c-13.9-7.2-22.5-6.4-27.3-5.8c-4.7,0.6-9.5,3.3-13.4,6.7c-3.9,3.3-11.4,11.7-12.8,27.5c-1.4,15.9,6.7,26.1,13.6,29.5
		c7,3.3,17.2,2.2,23.1-1.7c6.7-4.5,11.4-10.3,13.9-22.5c2.5-12.2-1.7-23.1-1.7-23.1l0.6-1.1c0,0,5.6,2.5,10.3,2.5
		C347.2,760.2,345.6,749.9,342.2,750.7"/>
	<path fill="#4999BA" d="M206.3,724.6c-1.9,7.8-8.1,12.8-12.8,14.7c-6.1,2.8-12.5,0.8-14.2-2.8c-1.4-2.8,0.3-6.4,3.3-8.3
		c3.1-1.7,4.7-0.3,7.2-1.7c3.1-1.7,3.6-0.8,9.7-6.4C202.4,720.4,206.3,724.6,206.3,724.6"/>
	<path fill="#4999BA" d="M185.2,812.1c0,0-1.1,3.1-4.2,8.3c-1.9,3.3-7.5,13.1-15,10.3c-2.5-1.4-4.5-5-0.8-8.9
		C169,817.7,185.2,812.1,185.2,812.1 M219.4,796.3c-1.7-1.9-3.1-18.4-3.6-20.9c-0.8,0.3-2.5,8.3-4.7,12.8c-2.5,4.7-6.7,7-8.6,7.8
		c1.7-6.7,2.2-14.2,2.2-20.3c0-14.2-3.1-27.3-12.8-28.9c-7.8-1.4-14.7,2.2-18.6,5.6c-5,4.5-5.8,11.1-3.3,14.2
		c1.9,2.2,6.1,2.5,8.9,0.3c2.8-1.9,1.9-4.2,4.5-5.8c2.8-1.9,5.3-2.2,7,1.1c1.4,2.8,0.3,10.3-1.1,13.4c-4.2,11.7-13.9,18.1-14.7,18.4
		c-2.2,1.1-11.4,6.1-15.3,3.1c-2.2-1.1-1.1-7-1.1-12.2c0-5.2,3.3-24.2,3.3-25.9s0.8-8.9-5.3-10.8c-6.4-1.9-11.7,4.2-12.8,6.7
		c-1.1,2.2-11.4,19.7-11.4,20.6c0,0.9-1.1-0.6-1.1-0.6s3.3-19.2,2.8-22.3c-0.6-3.1-2.8-4.7-5.3-5c-7.2-1.1-9.2,7.8-9.2,7.8
		s-4.7,27.5-5.8,36.2c-1.1,8.6-1.1,15.9,4.5,18.1c5.6,2.2,10-4.2,10-4.2l5.3-10l12.2-23.6h1.1c0,0-2.2,16.4-2.2,23.4
		c0,7.2,2.5,11.4,4.7,12.8c10,6.1,25-3.6,30.6-7.5c5.6-3.6,11.4-9.5,11.4-9.5s1.1-0.8,0.8,0.3c-0.8,2.5-3.1,7.5-3.6,9.2
		c-0.8,1.4-23.1,9.7-30.3,13.9c-5,2.8-10.8,13.6-3.9,22c5.6,6.7,12.5,6.4,19.7,4.7c7.2-1.7,12.2-6.4,17-14.5
		c2.2-3.3,7.2-14.7,9.2-18.9c1.1-0.8,6.7-3.6,13.6-8.1C217.4,796.8,218.3,796.5,219.4,796.3"/>
</g>
</svg>
