<?xml version="1.0" encoding="utf-8"?>
<!-- Generator: Adobe Illustrator 18.1.0, SVG Export Plug-In . SVG Version: 6.00 Build 0)  -->
<svg version="1.1" id="Ebene_1" xmlns="http://www.w3.org/2000/svg" xmlns:xlink="http://www.w3.org/1999/xlink" x="0px" y="0px"
	 viewBox="192 760.8 207 46.6" enable-background="new 192 760.8 207 46.6" xml:space="preserve">
<g>
	<defs>
		<rect id="SVGID_1_" x="192" y="760.8" width="207" height="46.6"/>
	</defs>
	<clipPath id="SVGID_2_">
		<use xlink:href="#SVGID_1_"  overflow="visible"/>
	</clipPath>
	<path clip-path="url(#SVGID_2_)" fill="#4999BA" d="M196,774.3c0,0,1-3.2,2.4-5.5c0.8-1.2,1.4-1.5,1.9-1.5c0.5-0.1,1.7,0.3,2.3,1.1
		c0.8,1.2,0.9,2,0.8,2.4c-0.3,0.9-1.6,3.4-1.6,3.4l3.8,0c0,0,0.7-0.1,0.9,0.4c0.3,0.9-0.2,2.2-0.6,3.1c-0.2,0.4-0.8,0.4-1.6,0.4
		c-0.4,0-3.7,0-3.7,0s-1,4.3-1.2,8.6c-0.1,1.9,0.1,3.9,0.8,4.2c0.8,0.3,3.3-1.2,4.3-1.9c1.2-0.8,2.4-2.2,3.5-3.3
		c0.7-0.7,1-0.5,1.2-0.4c0.1,0,0.3,1.1-0.1,2.5c-0.4,1.3-1.2,2.7-1.2,2.7s-2.6,2.9-5,4.3c-3,1.7-5.5,1.8-6.8,0.9
		c-1.7-1.1-2.3-3.4-2.5-5.3c-0.2-2.3-0.1-4.5,0.2-7.2c0.3-2.2,1-5,1-5l-1.5,0c0,0-1,0.1-1.1-0.2c-0.3-0.6-0.3-1.3,0-2.1
		c0.2-0.7,0.6-1.3,1.1-1.5C193.8,774.3,196,774.3,196,774.3"/>
	<path clip-path="url(#SVGID_2_)" fill="#445055" d="M383.8,774.3c0,0,1-3.2,2.4-5.5c0.8-1.2,1.4-1.5,1.9-1.5
		c0.5-0.1,1.7,0.3,2.3,1.1c0.8,1.2,0.9,2,0.8,2.4c-0.3,0.9-1.6,3.4-1.6,3.4l8.5,0c0,0,0.7-0.1,0.9,0.4c0.3,0.9-0.2,2.2-0.6,3.1
		c-0.2,0.4-5.5,0.4-6.3,0.4c-0.4,0-3.7,0-3.7,0s-1,4.3-1.2,8.6c-0.1,1.9,0.1,3.9,0.8,4.2c0.8,0.3,3.3-1.2,4.3-1.9
		c1.2-0.8,2.4-2.2,3.5-3.3c0.7-0.7,1-0.5,1.2-0.4c0.1,0,0.3,1.1-0.1,2.5c-0.4,1.3-1.2,2.7-1.2,2.7s-2.6,2.9-5,4.3
		c-3,1.7-5.5,1.8-6.8,0.9c-1.7-1.1-2.3-3.4-2.5-5.3c-0.2-2.3-0.1-4.5,0.2-7.2c0.3-2.2,1-5,1-5l-1.5,0c0,0-1,0.1-1.1-0.2
		c-0.3-0.6-0.3-1.3,0-2.1c0.2-0.7,0.6-1.3,1.1-1.5C381.6,774.3,383.8,774.3,383.8,774.3"/>
	<path clip-path="url(#SVGID_2_)" fill="#4999BA" d="M221,778.3c0,0-0.9,4.7-1.9,8.6c-1,3.8-3,4.5-3.4,4.5c-0.4,0-2.6,0.2-1.7-4.9
		c0.8-4.4,3.5-6.5,4.6-7.3C219.4,778.6,221,778.3,221,778.3 M233.1,787c0-1.7-1-1.7-1-1.7s-2.7,3.1-3.7,4c-0.7,0.7-2.4,1.6-3.2,1.2
		c-0.8-0.4-0.6-2.8-0.4-4c0.2-1.2,1.3-6.7,1.4-7.6c0.2-1.5,0.1-2.5-0.7-2.9c-0.7-0.4-2.1,0-3-0.4c-0.9-0.4-0.7-1.2-1.9-1.4
		c-1.2-0.2-3.3,0.4-4.5,1.2c-1.8,1.2-6.2,4.7-7.6,10.5c-0.8,3.1-0.6,5.7,0.6,7.4c0.7,0.9,2.3,2.5,4.5,2.5c3.5,0,7-3.7,7-3.7
		s0.9,2.5,2.1,3.2c1.6,0.9,3.3,0.5,4.2,0.1c0.9-0.4,5.4-3.8,5.8-5.2C233.4,788.6,233.1,788.7,233.1,787"/>
	<path clip-path="url(#SVGID_2_)" fill="#4999BA" d="M278.6,778.3c0,0-0.9,4.7-1.9,8.6c-1,3.8-3,4.5-3.4,4.5c-0.4,0-2.6,0.2-1.7-4.9
		c0.8-4.4,3.5-6.5,4.6-7.3C276.9,778.6,278.6,778.3,278.6,778.3 M290.6,787c0-1.7-1-1.7-1-1.7s-2.7,3.1-3.7,4
		c-0.7,0.7-2.4,1.6-3.2,1.2c-0.8-0.4-0.6-2.8-0.4-4c0.2-1.2,1.3-6.7,1.4-7.6c0.2-1.5,0.1-2.5-0.7-2.9c-0.7-0.4-2.1,0-3-0.4
		c-0.9-0.4-0.7-1.2-1.9-1.4c-1.2-0.2-3.3,0.4-4.5,1.2c-1.8,1.2-6.2,4.7-7.6,10.5c-0.8,3.1-0.6,5.7,0.6,7.4c0.7,0.9,2.3,2.5,4.5,2.5
		c3.5,0,7-3.7,7-3.7s0.9,2.5,2.1,3.2c1.6,0.9,3.8,0.1,4.8-0.3c0.9-0.4,4.8-3.4,5.3-4.8C291,788.6,290.6,788.7,290.6,787"/>
	<path clip-path="url(#SVGID_2_)" fill="#445055" d="M316.7,775c0,0,3.3-6.7,5.2-8.4c1.4-1.4,2.6-1.4,3.3-1.3
		c0.9,0.2,1.6,1.3,1.5,2.2c-0.1,1.4-2.2,4.4-5.4,5.9C318.4,774.7,316.7,775,316.7,775 M334.8,785.5c-0.2-1-0.7-0.7-1.2-0.7
		c-0.4,0-3.1,1.8-4.4,2c-0.9,0.1-1.8-0.1-2.6-1.2c-0.7-1.1-1.5-4.4-2.1-5.2c-0.6-0.7-1.4-1.9-2.4-1.8c-1,0.1-2.9,1.9-3.3,2.9
		c-0.4,1.1-0.2,1.6,0.3,2.5s1.9,2,1.9,3.4c0,1.4-0.6,3.2-1.9,3.7c-1.3,0.5-3.2,0.1-4.4-1.9c-1.2-2-0.6-5.3-0.3-7.4
		c0.3-2.1,1.1-3.3,1.1-3.3s2.4-0.4,5.2-1.6c1.7-0.7,5.2-2.5,7.3-4.5c3.1-2.9,3.5-7.1,1.5-9.5c-1.8-2.2-4.8-2.3-6.6-1.7
		c-1.8,0.6-3.1,1.3-4.7,2.7c-2,1.8-4.8,5.7-6.5,9.5c-3.1,6.8-4.3,12.8-3.1,16.7c1.3,3.5,3.9,5,6.1,5.5c3.1,0.6,7.1-0.6,8.6-2.2
		c1.5-1.6,1.6-3.9,1.6-3.9s3.3,1.6,5.8,0.1C333.6,788.2,335.1,786.5,334.8,785.5"/>
	<path clip-path="url(#SVGID_2_)" fill="#445055" d="M335.2,785c0,0,0.2-3.7,1.4-5.1c1.1-1.2,2.4-1.6,3.4-1c1.2,0.7,0.9,2.6,0.3,3.4
		C338.4,785,335.2,785,335.2,785 M352,785.8c-0.9-1.1-2.8,0.2-2.8,0.2s-3.2,2.2-5,3.3c-1.7,1.1-4.5,2-6.5,1.6
		c-2.3-0.2-1.8-2.4-1.8-2.4s3.5-0.9,4.4-1.6c1.5-1.3,2.4-2,3.5-3.7c1.2-1.7,1.6-5.2-0.6-7.3c-2.2-2.2-5.2-1.7-6.2-1.4
		c-1,0.2-3.7,1.5-5.5,4.8c-1.8,3.5-2.4,8.2-1.4,11c1.1,2.8,3,4.9,6.3,5.5c3.4,0.6,7.9-1.3,9.6-2.4c1.6-1,5.3-4,5.7-4.5
		C352.3,788.2,353,786.9,352,785.8"/>
	<path clip-path="url(#SVGID_2_)" fill="#445055" d="M350,796.3c-0.9-0.2-1.7-1.1-2.1-1.9c-0.3-0.9-0.3-4.9,0.1-7.7
		c0.4-2.8,1.6-8.6,1.9-9.4c0.3-0.8,0.6-2.1,1.2-2.4c0.7-0.2,1.8-0.2,2.2-0.2c0.4,0.1,0.7,0.4,0.7,1.1c0.1,0.7,0,5.2,0,5.2h0.4
		c0,0,1.9-4.1,3.3-5.2c1.5-1.1,3.1-1.3,4-0.8c1.2,0.6,1.1,2.2,0.7,3.5c-0.3,1.3-0.9,4.7,0.2,5.7c1.1,1,2.2,0.4,2.9,0.2
		c0.6-0.2,3.9-2.3,3.9-2.3s0.9-0.4,0.9,1s-0.4,1.2-1.1,1.7c-0.7,0.6-4.3,3.7-6.4,4c-1.6,0.3-3,0.2-3.8-1.2c-0.9-1.4-1.7-5.7-1.7-5.7
		l-0.4,0c0,0-4.2,11.8-4.5,12.6C352,795.7,351.5,796.6,350,796.3"/>
	<path clip-path="url(#SVGID_2_)" fill="#445055" d="M373,779.8c-0.1-0.8,0.6-1.6,1.1-1.7c1-0.2,8.6-0.1,8.6-0.1l0.8-3.6
		c0,0-7.1,0-8.3,0c-2.1,0-5.2,0.4-6.9,2.6c-1.8,2.2-1.9,4.7-0.7,6.6c1.2,1.9,4.6,5.4,5.2,6c0.6,0.6,1.4,1.2,1.1,1.9
		c-0.2,0.7-0.9,0.7-1.4,0.7s-2.9-1.5-3.7-1.8s-2.4-1.3-4.1-0.7c-1.7,0.6-1.9,1.6-1.9,2.9c0,0.9,1.9,2.4,3.5,3
		c1.5,0.5,7.5,1.5,11-0.6c2.9-1.8,3.1-3.8,2.8-5.6c-0.3-1.7-2.5-3.8-3.4-4.7C375.8,783.6,373.2,780.9,373,779.8"/>
	<path clip-path="url(#SVGID_2_)" fill="#445055" d="M302.4,785.5c-0.5,3.3-2.1,5.3-3.8,5.6c-1.5,0.3-2.8,0.2-3.7-1.4
		c-0.9-1.6-1.2-4.6-0.1-7.9c1.2-3.4,3.1-4.6,5.1-4.2C301.9,777.8,303,781.2,302.4,785.5 M311,775.7c-1.5,0.3-1.6-0.1-3.2-0.8
		c-4.9-2.5-7.8-2.2-9.5-2.1c-1.7,0.2-3.3,1.2-4.7,2.3s-4,4.1-4.4,9.6c-0.4,5.5,2.3,9.1,4.7,10.3c2.4,1.1,6,0.8,8-0.6
		c2.3-1.5,4-3.6,4.8-7.8c0.8-4.2-0.6-8-0.6-8l0.2-0.4c0,0,1.9,0.8,3.6,0.8C312.8,779.1,312.3,775.5,311,775.7"/>
	<path clip-path="url(#SVGID_2_)" fill="#4999BA" d="M263.8,766.6c-0.7,2.7-2.8,4.5-4.4,5.2c-2.2,0.9-4.3,0.3-4.9-0.9
		c-0.5-0.9,0.1-2.2,1.1-2.9c1-0.6,1.6-0.1,2.5-0.6c1.1-0.6,1.3-0.2,3.4-2.2C262.4,765.2,263.8,766.6,263.8,766.6"/>
	<path clip-path="url(#SVGID_2_)" fill="#4999BA" d="M256.5,797.1c0,0-0.4,1.1-1.4,2.9c-0.7,1.1-2.6,4.6-5.2,3.6
		c-0.9-0.5-1.5-1.7-0.3-3.1C250.8,799.1,256.5,797.1,256.5,797.1 M268.3,791.6c-0.6-0.6-1.1-6.4-1.2-7.3c-0.3,0.1-0.9,2.9-1.7,4.4
		c-0.8,1.7-2.3,2.4-3,2.7c0.5-2.3,0.7-4.9,0.7-7.1c0-4.9-1.1-9.4-4.4-10c-2.7-0.5-5.2,0.7-6.5,1.9c-1.7,1.6-2.1,3.8-1.2,4.9
		c0.7,0.8,2.1,0.8,3.1,0.1c1-0.7,0.7-1.4,1.6-2c1-0.7,1.9-0.8,2.4,0.4c0.5,1,0.1,3.6-0.4,4.6c-1.4,4.1-4.8,6.2-5.1,6.4
		c-0.8,0.4-4,2.1-5.3,1.1c-0.8-0.4-0.4-2.4-0.4-4.3c0-1.9,1.1-8.4,1.1-9c0-0.6,0.3-3.1-1.9-3.8c-2.2-0.7-4,1.5-4.4,2.3
		c-0.4,0.8-4,6.9-4,7.1s-0.4-0.1-0.4-0.1s1.2-6.7,1-7.7c-0.2-1-0.9-1.6-1.8-1.7c-2.6-0.3-3.2,2.7-3.2,2.7s-1.7,9.6-2,12.5
		c-0.3,3-0.3,5.5,1.6,6.3c1.9,0.8,3.5-1.5,3.5-1.5l1.8-3.4l4.3-8.2l0.4,0c0,0-0.8,5.7-0.8,8.2c0,2.5,0.9,4,1.6,4.5
		c3.5,2.1,8.7-1.3,10.6-2.6c1.9-1.3,4-3.3,4-3.3s0.4-0.2,0.3,0.1c-0.3,0.9-1.1,2.7-1.3,3.2c-0.3,0.5-8,3.4-10.6,4.9
		c-1.7,1-3.8,4.7-1.4,7.6c2,2.3,4.3,2.2,6.8,1.6c2.5-0.6,4.2-2.3,5.9-5c0.8-1.1,2.5-5.1,3.2-6.5c0.4-0.3,2.3-1.2,4.7-2.8
		C267.6,791.8,267.9,791.7,268.3,791.6"/>
</g>
</svg>
